<?xml version="1.0" standalone="no"?>
<!DOCTYPE svg PUBLIC "-//W3C//DTD SVG 20010904//EN"
 "http://www.w3.org/TR/2001/REC-SVG-20010904/DTD/svg10.dtd">
<svg version="1.0" xmlns="http://www.w3.org/2000/svg"
 width="225.000000pt" height="225.000000pt" viewBox="0 0 225.000000 225.000000"
 preserveAspectRatio="xMidYMid meet">
<metadata>
Created by potrace 1.10, written by Peter Selinger 2001-2011
</metadata>
<g transform="translate(0.000000,225.000000) scale(0.100000,-0.100000)"
fill="#118822" stroke="none">
<path d="M1145 2146 c-64 -20 -97 -41 -146 -93 -52 -54 -73 -89 -89 -154 -9
-35 -20 -50 -51 -70 -64 -41 -208 -188 -243 -249 -93 -159 -109 -361 -42 -547
13 -38 38 -108 56 -156 17 -49 34 -113 37 -141 l5 -53 -66 -5 c-126 -11 -196
-77 -196 -188 0 -56 13 -86 52 -121 23 -21 23 -19 -13 -65 -46 -57 -89 -153
-89 -198 0 -30 7 -45 34 -72 l34 -34 697 0 697 0 34 34 c27 27 34 42 34 72 0
45 -43 141 -89 198 -36 46 -36 44 -13 65 53 47 69 132 38 206 -19 45 -94 93
-158 101 -43 6 -48 9 -48 33 0 36 -22 116 -48 175 -31 69 -104 168 -194 262
l-78 81 54 37 c59 40 71 40 111 -4 67 -73 166 -63 226 24 12 18 37 41 55 51
39 21 59 63 50 108 -17 91 -172 279 -271 330 -27 14 -69 48 -92 76 -43 50 -75
64 -173 73 -24 3 -25 6 -25 63 0 33 3 77 7 98 6 30 3 42 -13 58 -22 22 -29 22
-84 5z m10 -279 c11 -25 37 -37 82 -37 69 0 109 -17 137 -60 17 -26 44 -48 82
-67 73 -35 160 -121 213 -209 38 -63 40 -70 24 -79 -10 -5 -41 -34 -69 -63
l-50 -54 -44 37 c-83 69 -131 73 -214 16 -53 -35 -61 -38 -91 -28 -41 12 -63
5 -74 -25 -14 -38 5 -68 125 -186 162 -160 223 -256 242 -375 l9 -57 -382 0
-382 0 -6 76 c-5 55 -19 106 -51 187 -65 165 -79 221 -79 317 -1 195 83 341
283 491 62 46 67 53 89 121 19 60 33 81 80 127 l56 56 6 -85 c3 -47 9 -93 14
-103z m541 -1297 c62 -24 74 -92 23 -134 l-31 -26 -563 0 -563 0 -31 26 c-49
41 -39 110 20 133 34 14 1109 14 1145 1z m18 -312 c53 -60 91 -131 82 -153 -8
-23 -1334 -23 -1342 0 -9 22 32 98 83 155 l45 50 543 0 543 0 46 -52z"/>
</g>
</svg>
